<svg xmlns="http://www.w3.org/2000/svg" fill="#fff" viewBox="2.08 3 19.62 18"><path d="M5.9 21C5.6 21 5.3 20.7 5.4 20.4L6 17H2.6C2.3 17 2 16.7 2.1 16.4L2.3 15.4C2.3 15.2 2.5 15 2.8 15H6.4L7.4 9H4C3.7 9 3.5 8.7 3.5 8.4L3.7 7.4C3.7 7.2 3.9 7 4.2 7H7.8L8.4 3.4C8.4 3.2 8.6 3 8.9 3H9.9C10.2 3 10.4 3.3 10.4 3.6L9.8 7H15.8L16.4 3.4C16.4 3.2 16.6 3 16.9 3H17.9C18.2 3 18.4 3.3 18.4 3.6L17.8 7H21.2C21.5 7 21.7 7.3 21.7 7.6L21.5 8.6C21.4 8.8 21.2 9 21 9H17.4L16.4 15H19.8C20.1 15 20.3 15.3 20.2 15.6L20.1 16.6C20 16.8 19.8 17 19.6 17H16L15.4 20.6C15.3 20.8 15.1 21 14.9 21H13.9C13.6 21 13.3 20.7 13.4 20.4L14 17H8L7.4 20.6C7.3 20.8 7.1 21 6.9 21H5.9ZM9.4 9 8.4 15H14.4L15.4 9H9.4"/></svg>