<svg xmlns="http://www.w3.org/2000/svg" xmlns:xlink="http://www.w3.org/1999/xlink" viewBox="0 0 1318.71 344.62" height="180"><defs><style>.cls-1{fill:url(#linear-gradient);}.cls-2{fill:url(#linear-gradient-2);}.cls-3{fill:url(#linear-gradient-3);}.cls-4{fill:url(#linear-gradient-4);}.cls-5{fill:#383838;}.cls-6{fill:url(#linear-gradient-5);}.cls-7{fill:url(#linear-gradient-6);}.cls-8{fill:url(#linear-gradient-7);}.cls-9{fill:url(#linear-gradient-8);}.cls-10{fill:url(#linear-gradient-9);}</style><linearGradient id="linear-gradient" x1="413.2" y1="116.6" x2="413.2" y2="259.81" gradientUnits="userSpaceOnUse"><stop offset="0" stop-color="#92fe9d"/><stop offset="1" stop-color="#00c9ff"/></linearGradient><linearGradient id="linear-gradient-2" x1="476.94" y1="116.6" x2="476.94" y2="259.81" xlink:href="#linear-gradient"/><linearGradient id="linear-gradient-3" x1="541.88" y1="116.6" x2="541.88" y2="259.81" xlink:href="#linear-gradient"/><linearGradient id="linear-gradient-4" x1="598.61" y1="116.6" x2="598.61" y2="259.81" xlink:href="#linear-gradient"/><linearGradient id="linear-gradient-5" x1="1113.92" y1="116.6" x2="1113.92" y2="259.81" xlink:href="#linear-gradient"/><linearGradient id="linear-gradient-6" x1="1157.36" y1="116.6" x2="1157.36" y2="259.81" xlink:href="#linear-gradient"/><linearGradient id="linear-gradient-7" x1="1225.21" y1="116.6" x2="1225.21" y2="259.81" xlink:href="#linear-gradient"/><linearGradient id="linear-gradient-8" x1="1291.86" y1="116.6" x2="1291.86" y2="259.81" xlink:href="#linear-gradient"/><linearGradient id="linear-gradient-9" x1="348.71" y1="7.78" x2="36.42" y2="320.08" xlink:href="#linear-gradient"/></defs><g id="Layer_2" data-name="Layer 2"><g id="Layer_1-2" data-name="Layer 1"><path class="cls-1" d="M415.71,138.88q15.35,0,22,12.17l-11.25,4.36a13.26,13.26,0,0,0-10.71-5.16q-13,0-13,15.74v14.42q0,15.74,13,15.74A13.26,13.26,0,0,0,426.42,191l11.25,4.36q-6.62,12.18-22,12.17a31.18,31.18,0,0,1-14.55-3.17,21.28,21.28,0,0,1-9.25-9.33,31.43,31.43,0,0,1-3.18-14.61V166a31.43,31.43,0,0,1,3.18-14.61,21.2,21.2,0,0,1,9.25-9.32A31.06,31.06,0,0,1,415.71,138.88Z"/><path class="cls-2" d="M464.12,113.75v28.57a34.11,34.11,0,0,1,15.2-3.31,31.42,31.42,0,0,1,9,1.26,25.79,25.79,0,0,1,7.8,3.84,17.16,17.16,0,0,1,5.62,7.27,27,27,0,0,1,2.05,10.91v44h-14V163.08q0-6.74-3.24-10t-9.72-3.24a30.89,30.89,0,0,0-12.69,2.64v53.83h-14V113.75Z"/><path class="cls-3" d="M540.42,139a38.46,38.46,0,0,1,14.09,2.05,18.84,18.84,0,0,1,8.73,6.22,26.12,26.12,0,0,1,4.23,8.66,40.41,40.41,0,0,1,1.25,10.58v39.94H557.88l-.26-3.44q-7.15,4.5-17.33,4.5a34.2,34.2,0,0,1-9.52-1.26,25.12,25.12,0,0,1-8-3.9,17.64,17.64,0,0,1-5.69-7.14A25.25,25.25,0,0,1,515,184.64a23.1,23.1,0,0,1,1.65-9.06,18,18,0,0,1,4.24-6.28,20.65,20.65,0,0,1,6.28-3.9,28.67,28.67,0,0,1,7.4-2,65.94,65.94,0,0,1,7.94-.46A84.57,84.57,0,0,1,554.71,164q-.13-6.21-3.24-9.85t-11.18-3.77a25.06,25.06,0,0,0-14.68,4l-7.14-6.74Q526.93,139,540.42,139ZM544,172.74q-16,0-16,11.9t14.81,11.9a25.15,25.15,0,0,0,11.91-2.78v-20.1A79.63,79.63,0,0,0,544,172.74Z"/><path class="cls-4" d="M596.76,140.07h15v11.37h-15V180q0,13,9.13,15.61a27.27,27.27,0,0,0,8.72.53v11.24a39.62,39.62,0,0,1-9.78-.13,26.74,26.74,0,0,1-16-7.28q-6.23-6.07-6.22-17.46V124.07h14.15Z"/><path class="cls-5" d="M647.28,139a38.46,38.46,0,0,1,14.09,2.05,18.76,18.76,0,0,1,8.72,6.22,26,26,0,0,1,4.24,8.66,40.84,40.84,0,0,1,1.25,10.58v39.94H664.74l-.27-3.44q-7.14,4.5-17.32,4.5a34.2,34.2,0,0,1-9.52-1.26,25.12,25.12,0,0,1-8-3.9,17.55,17.55,0,0,1-5.69-7.14,25.25,25.25,0,0,1-2.05-10.58,23.1,23.1,0,0,1,1.65-9.06,18,18,0,0,1,4.23-6.28,20.7,20.7,0,0,1,6.29-3.9,28.56,28.56,0,0,1,7.4-2,65.94,65.94,0,0,1,7.94-.46A84.34,84.34,0,0,1,661.56,164c-.08-4.14-1.17-7.43-3.24-9.85s-5.79-3.68-11.17-3.77a25.06,25.06,0,0,0-14.68,4l-7.14-6.74Q633.79,139,647.28,139Zm3.57,33.73q-16,0-16,11.9t14.81,11.9a25.08,25.08,0,0,0,11.9-2.78v-20.1A79.5,79.5,0,0,0,650.85,172.74Z"/><path class="cls-5" d="M717.64,139a32.29,32.29,0,0,1,9.39,1.33,25.76,25.76,0,0,1,7.93,4,18.32,18.32,0,0,1,5.69,7.28,25.52,25.52,0,0,1,2.12,10.71v44h-14V163.08q0-13.22-13.1-13.22a29.47,29.47,0,0,0-12.56,2.64v53.83h-14V140.07h10.85l.39,3.44A33.16,33.16,0,0,1,717.64,139Z"/><path class="cls-5" d="M779.4,139a38.4,38.4,0,0,1,14.08,2.05,18.74,18.74,0,0,1,8.73,6.22,26.12,26.12,0,0,1,4.23,8.66,40.39,40.39,0,0,1,1.26,10.58v39.94H796.85l-.26-3.44q-7.14,4.5-17.32,4.5a34.27,34.27,0,0,1-9.53-1.26,25.22,25.22,0,0,1-8-3.9,17.62,17.62,0,0,1-5.68-7.14,25.25,25.25,0,0,1-2-10.58,23.1,23.1,0,0,1,1.65-9.06,17.88,17.88,0,0,1,4.23-6.28,20.65,20.65,0,0,1,6.28-3.9,28.74,28.74,0,0,1,7.41-2,65.77,65.77,0,0,1,7.93-.46A84.46,84.46,0,0,1,793.68,164q-.13-6.21-3.24-9.85t-11.17-3.77a25,25,0,0,0-14.68,4l-7.15-6.74Q765.92,139,779.4,139ZM783,172.74q-16,0-16,11.9t14.81,11.9a25.11,25.11,0,0,0,11.9-2.78v-20.1A79.5,79.5,0,0,0,783,172.74Z"/><path class="cls-5" d="M835.87,206.33h-14V113.75h14Z"/><path class="cls-5" d="M902.52,140.07v68.24q0,11.37-6.48,17.39t-16.93,6a42.47,42.47,0,0,1-23.94-7.27l5.56-7.94a29.67,29.67,0,0,0,15.6,4.76q11.77,0,12-11.63l.13-6.48a35.81,35.81,0,0,1-15.6,3.17,30.49,30.49,0,0,1-9-1.26,25,25,0,0,1-7.6-3.83,17,17,0,0,1-5.49-7.21,27.42,27.42,0,0,1-2-10.84V140.07h14v42.45c0,4.77,1.06,8.2,3.18,10.32s5.33,3.17,9.65,3.17a34.16,34.16,0,0,0,12.83-2.38V140.07Z"/><path class="cls-5" d="M931.35,140.07h14.94v11.37H931.35V180q0,13,9.12,15.61a27.34,27.34,0,0,0,8.73.53v11.24a39.62,39.62,0,0,1-9.78-.13,26.8,26.8,0,0,1-16-7.28q-6.21-6.07-6.21-17.46V124.07h14.15Z"/><path class="cls-5" d="M968.78,112.56a7.23,7.23,0,0,1,7.4,7.41,7.69,7.69,0,0,1-2,5.36,7,7,0,0,1-5.42,2.18,7.45,7.45,0,0,1-7.54-7.54,6.89,6.89,0,0,1,2.25-5.36A7.61,7.61,0,0,1,968.78,112.56Zm7,93.77H961.63V140.07h14.15Z"/><path class="cls-5" d="M1015.59,138.88q15.34,0,22,12.17l-11.25,4.36a13.26,13.26,0,0,0-10.71-5.16q-13,0-13,15.74v14.42q0,15.74,13,15.74A13.26,13.26,0,0,0,1026.3,191l11.25,4.36q-6.61,12.18-22,12.17a31.18,31.18,0,0,1-14.55-3.17,21.28,21.28,0,0,1-9.25-9.33,31.43,31.43,0,0,1-3.18-14.61V166a31.43,31.43,0,0,1,3.18-14.61,21.2,21.2,0,0,1,9.25-9.32A31.06,31.06,0,0,1,1015.59,138.88Z"/><path class="cls-5" d="M1071.93,138.75q12,0,18,5.42t6,14.28h-13.49a7.8,7.8,0,0,0-2.65-5.82c-1.76-1.67-4.41-2.51-7.93-2.51s-6.15.84-7.87,2.51a7.91,7.91,0,0,0-2.58,5.82,6,6,0,0,0,3.11,5.29q3.11,2,9.72,3.58,11.24,2.37,17.06,6.94t5.82,13.42A18.87,18.87,0,0,1,1091,202q-6.15,5.83-18.19,5.82-12.69,0-19.5-5.48a18.72,18.72,0,0,1-7.08-14.75H1060a9.32,9.32,0,0,0,3.24,6.41c1.89,1.64,4.65,2.45,8.26,2.45a13.6,13.6,0,0,0,6-1,9.22,9.22,0,0,0,4-3.11,8.51,8.51,0,0,0,1.52-4.5,7.81,7.81,0,0,0-.73-3.37,7.41,7.41,0,0,0-1.78-2.44,11.38,11.38,0,0,0-3.18-1.79c-1.41-.57-2.62-1-3.64-1.32s-2.53-.73-4.56-1.26q-5-1.19-8.26-2.31a30.86,30.86,0,0,1-6.55-3.24,13.42,13.42,0,0,1-5-5.56,18.77,18.77,0,0,1-1.65-8.2,18.24,18.24,0,0,1,6-14.15Q1059.64,138.76,1071.93,138.75Z"/><path class="cls-6" d="M1114,191.25a7.35,7.35,0,0,1,3,.66,8.94,8.94,0,0,1,2.51,1.72,8.65,8.65,0,0,1,1.72,2.52,7.27,7.27,0,0,1,.66,3,7.54,7.54,0,0,1-2.38,5.62,8,8,0,0,1-11.24,0,7.83,7.83,0,0,1,0-11.24A7.87,7.87,0,0,1,1114,191.25Z"/><path class="cls-7" d="M1155.91,139a38.4,38.4,0,0,1,14.08,2.05,18.74,18.74,0,0,1,8.73,6.22,26.12,26.12,0,0,1,4.23,8.66,40.39,40.39,0,0,1,1.26,10.58v39.94h-10.85l-.26-3.44q-7.14,4.5-17.33,4.5a34.25,34.25,0,0,1-9.52-1.26,25.22,25.22,0,0,1-8-3.9,17.72,17.72,0,0,1-5.69-7.14,25.41,25.41,0,0,1-2-10.58,22.92,22.92,0,0,1,1.66-9.06,17.88,17.88,0,0,1,4.23-6.28,20.65,20.65,0,0,1,6.28-3.9,28.74,28.74,0,0,1,7.41-2A65.77,65.77,0,0,1,1158,163a84.46,84.46,0,0,1,12.17,1.06q-.14-6.21-3.24-9.85t-11.18-3.77a25,25,0,0,0-14.67,4l-7.15-6.74Q1142.41,139,1155.91,139Zm3.57,33.73q-16,0-16,11.9t14.81,11.9a25.11,25.11,0,0,0,11.9-2.78v-20.1A79.5,79.5,0,0,0,1159.48,172.74Z"/><path class="cls-8" d="M1226.79,139.15a33.25,33.25,0,0,1,9.26,1.25,26.3,26.3,0,0,1,8,3.84,18,18,0,0,1,5.82,7.2,25,25,0,0,1,2.18,10.72v22a27.62,27.62,0,0,1-1.39,9.06,18.72,18.72,0,0,1-9.19,11,24.28,24.28,0,0,1-6.54,2.45,33.85,33.85,0,0,1-7.08.73,39.81,39.81,0,0,1-15.47-3v28.56h-14V140.07h10.84l.4,3.44Q1216.74,139.14,1226.79,139.15ZM1224.54,150a27.93,27.93,0,0,0-12.16,2.64v41.53a34.16,34.16,0,0,0,12.83,2.38q6.46,0,9.65-3.17t3.17-10.32V162q-.13-5.82-3.57-8.93T1224.54,150Z"/><path class="cls-9" d="M1293.45,139.15a33.18,33.18,0,0,1,9.25,1.25,26.3,26.3,0,0,1,8,3.84,18,18,0,0,1,5.82,7.2,24.82,24.82,0,0,1,2.19,10.72v22a27.88,27.88,0,0,1-1.39,9.06,18.81,18.81,0,0,1-9.19,11,24.34,24.34,0,0,1-6.55,2.45,33.85,33.85,0,0,1-7.08.73,39.85,39.85,0,0,1-15.47-3v28.56h-14V140.07h10.85l.39,3.44Q1283.39,139.14,1293.45,139.15ZM1291.2,150a28,28,0,0,0-12.17,2.64v41.53a34.16,34.16,0,0,0,12.83,2.38q6.48,0,9.65-3.17t3.18-10.32V162q-.14-5.82-3.57-8.93T1291.2,150Z"/><path class="cls-10" d="M369,14.17a23.21,23.21,0,0,0-43.74,15.25L238.57,97.17c-.56-.45-1.12-.89-1.71-1.29a23.17,23.17,0,0,0-28.08,1.62L147.61,50.1A23.25,23.25,0,0,0,147,33.74a23.39,23.39,0,0,0-8.41-10.21,23.22,23.22,0,0,0-34.36,28.29c.08.19.18.38.26.57L34.21,120.18A23.11,23.11,0,1,0,44.6,131.57c-.18-.42-.37-.82-.57-1.22L55.81,119V276.42a7.07,7.07,0,0,0,7.07,7.07h98l69,59.42a7.08,7.08,0,0,0,11.69-5.28l.57-54.14h39.2a7.07,7.07,0,0,0,7.07-7.07V76.2L333,41.27c.51.42,1,.82,1.59,1.19A23.22,23.22,0,0,0,369,14.17ZM356,26.74a9.08,9.08,0,0,1-17.44-3.53,9.3,9.3,0,0,1,.71-3.53,9.21,9.21,0,0,1,3.3-4,9.12,9.12,0,0,1,8.6-.83,9.12,9.12,0,0,1,4,3.29,9.12,9.12,0,0,1,.83,8.6ZM215.51,111.6a9.07,9.07,0,0,1,3.3-4,8.93,8.93,0,0,1,5.06-1.55,9,9,0,0,1,7.53,4,8.94,8.94,0,0,1,1.55,5.07,9,9,0,0,1-4,7.52,9.09,9.09,0,0,1-8.6.84,9.1,9.1,0,0,1-4-3.3,9.07,9.07,0,0,1-.84-8.59Zm-95-76.35a9.09,9.09,0,0,1,8.6-.84,9.21,9.21,0,0,1,4,3.3,9.07,9.07,0,0,1-7.53,14.14,8.94,8.94,0,0,1-3.53-.71,9.12,9.12,0,0,1-4-3.29,9.12,9.12,0,0,1-.83-8.6A9.12,9.12,0,0,1,120.52,35.25ZM28.28,148.13a9.09,9.09,0,0,1-8.6.84,9.07,9.07,0,0,1-4-3.3,9.1,9.1,0,0,1-.83-8.59,9.12,9.12,0,0,1,3.29-4,9,9,0,0,1,5.07-1.55,9.12,9.12,0,0,1,3.53.71,9.21,9.21,0,0,1,4,3.3,9,9,0,0,1,1.55,5.07,9,9,0,0,1-4,7.52ZM274.22,269.35H235.1a7.06,7.06,0,0,0-7.07,7l-.49,45.93-59.42-51.21a7.08,7.08,0,0,0-4.61-1.71H70v-164l44-42.47a23.22,23.22,0,0,0,20.66,1.29,22.81,22.81,0,0,0,4.64-2.64l62.06,48.1a23.21,23.21,0,1,0,45.76,5.51,22.88,22.88,0,0,0-.81-6l27.94-21.83Z"/><path class="cls-5" d="M235.1,149.67h-126a7.07,7.07,0,0,0,0,14.14h126a7.07,7.07,0,0,0,0-14.14Z"/><path class="cls-5" d="M235.1,184.26h-126a7.07,7.07,0,1,0,0,14.14h126a7.07,7.07,0,0,0,0-14.14Z"/><path class="cls-5" d="M235.1,218.85h-126a7.07,7.07,0,1,0,0,14.14h126a7.07,7.07,0,0,0,0-14.14Z"/></g></g></svg>